<?xml version="1.0" standalone="no"?>
<!DOCTYPE svg PUBLIC "-//W3C//DTD SVG 20010904//EN"
 "http://www.w3.org/TR/2001/REC-SVG-20010904/DTD/svg10.dtd">
<svg version="1.0" xmlns="http://www.w3.org/2000/svg"
 width="1200.000000pt" height="715.000000pt" viewBox="0 0 1200.000000 715.000000"
 preserveAspectRatio="xMidYMid meet">

<g transform="translate(0.000000,715.000000) scale(0.100000,-0.100000)"
fill="#000000" stroke="none">
<path d="M0 5355 l0 -1795 1775 0 1775 0 0 -1775 0 -1775 1795 0 1795 0 0
1800 0 1800 -1770 0 -1770 0 0 1770 0 1770 -1800 0 -1800 0 0 -1795z m2932
1416 c28 -25 33 -36 33 -76 0 -37 -5 -51 -23 -66 l-24 -19 29 -24 c24 -21 28
-32 28 -74 0 -42 -5 -56 -28 -80 -69 -72 -209 -58 -243 23 -25 60 -20 75 25
75 35 0 39 -3 45 -30 13 -65 108 -58 114 8 4 42 -11 60 -51 64 -28 3 -32 7
-35 36 -3 29 -1 32 25 32 47 0 67 26 52 68 -7 17 -16 22 -45 22 -31 0 -37 -4
-47 -30 -11 -30 -23 -35 -64 -24 -28 8 -29 30 -4 68 28 42 58 55 123 56 50 0
62 -4 90 -29z m354 7 c-3 -13 -6 -31 -6 -40 0 -16 -10 -18 -79 -18 l-79 0 -4
-34 c-3 -30 -2 -33 13 -25 10 5 36 9 58 9 33 0 49 -7 77 -33 30 -28 37 -42 41
-83 9 -89 -30 -145 -114 -165 -76 -17 -173 36 -173 95 0 24 4 26 40 26 33 0
42 -4 49 -24 16 -40 59 -48 91 -16 25 25 28 101 4 120 -22 19 -75 16 -89 -3
-11 -15 -85 -26 -85 -13 0 8 20 161 26 194 l5 32 116 0 c115 0 115 0 109 -22z
m-1597 -482 c206 -54 345 -187 382 -364 15 -76 6 -203 -20 -272 -38 -101 -118
-173 -238 -215 l-64 -23 44 -6 c145 -22 290 -151 349 -312 29 -80 32 -279 4
-369 -57 -190 -181 -302 -390 -355 -128 -32 -267 -40 -738 -40 l-448 0 0 991
0 990 528 -4 c456 -3 536 -6 591 -21z m1491 -690 l0 -173 -72 -6 c-190 -14
-321 -123 -357 -295 -7 -33 -11 -191 -11 -422 l0 -370 -170 0 -170 0 0 705 0
705 170 0 170 0 0 -97 0 -96 28 39 c83 114 217 180 370 183 l42 1 0 -174z
m3308 -2363 l-3 -38 -76 -3 c-70 -3 -77 -5 -83 -25 -11 -40 -8 -49 13 -37 11
5 38 10 61 10 80 0 135 -89 111 -178 -21 -76 -103 -121 -188 -101 -43 9 -90
54 -95 89 -3 23 1 25 37 28 33 2 42 -1 50 -19 26 -57 94 -49 109 12 13 51 1
85 -31 97 -29 10 -66 1 -78 -17 -3 -6 -22 -11 -41 -11 -26 0 -34 4 -34 18 0
25 20 184 25 200 3 9 35 12 115 12 l111 0 -3 -37z m305 17 c14 -11 30 -33 35
-50 10 -28 10 -30 -26 -36 -30 -6 -38 -3 -50 15 -20 29 -67 28 -87 -2 -8 -13
-18 -38 -21 -57 l-7 -33 24 16 c13 10 43 17 67 17 76 0 125 -74 108 -163 -18
-96 -163 -134 -231 -61 -74 80 -53 303 33 357 39 24 123 22 155 -3z m-1848
-505 c101 -21 209 -78 276 -144 87 -88 128 -192 129 -326 0 -123 -37 -219
-112 -292 -43 -42 -157 -103 -192 -103 -30 0 -12 -11 35 -21 148 -34 274 -149
331 -305 29 -80 32 -279 4 -369 -56 -187 -176 -300 -377 -354 -126 -35 -238
-41 -726 -41 l-473 0 0 985 0 985 518 0 c416 0 531 -3 587 -15z m1545 -541
c158 -33 272 -118 322 -242 22 -56 23 -66 28 -552 7 -503 7 -512 45 -602 7
-17 -5 -18 -174 -18 l-180 0 -12 43 c-22 82 -19 80 -69 46 -194 -131 -465
-158 -651 -63 -233 118 -302 438 -139 644 38 48 132 112 208 140 31 12 164 44
295 71 132 26 260 54 285 61 46 13 47 14 50 58 4 63 -23 109 -84 140 -44 23
-60 25 -174 25 -102 0 -133 -4 -168 -19 -52 -23 -81 -68 -89 -134 l-6 -50
-126 5 c-69 2 -146 6 -170 9 l-44 6 7 61 c21 206 201 353 473 387 89 11 278 3
373 -16z"/>
<path d="M940 5776 l0 -246 268 0 c228 1 274 3 318 18 98 34 152 101 161 200
8 85 -11 139 -65 192 -72 70 -89 73 -404 77 l-278 4 0 -245z"/>
<path d="M940 4961 l0 -291 258 0 c278 0 367 9 443 41 95 41 134 112 134 244
0 67 -5 89 -28 138 -34 69 -75 102 -159 129 -55 18 -98 21 -355 26 l-293 5 0
-292z"/>
<path d="M6662 3048 c-17 -17 -15 -83 3 -98 8 -7 26 -12 40 -12 35 0 55 19 55
54 0 47 -16 68 -53 68 -18 0 -38 -5 -45 -12z"/>
<path d="M4210 2231 l0 -251 232 0 c257 0 330 9 403 48 168 91 148 352 -33
423 -53 21 -76 23 -329 27 l-273 4 0 -251z"/>
<path d="M4210 1415 l0 -287 308 4 c341 5 380 11 448 70 59 52 78 100 78 198
1 48 -5 102 -13 124 -21 59 -84 122 -149 148 -54 21 -72 23 -364 26 l-308 3 0
-286z"/>
<path d="M6464 1484 c-17 -7 -113 -31 -214 -53 -203 -45 -264 -69 -297 -120
-27 -40 -31 -117 -8 -160 39 -75 111 -106 234 -98 106 6 183 34 244 88 65 57
78 98 75 240 l-3 116 -31 -13z"/>
<path d="M6860 6304 c-90 -20 -238 -70 -278 -94 -42 -26 -59 -62 -44 -95 9
-18 28 -29 84 -46 92 -28 114 -50 125 -125 4 -33 8 -336 8 -674 0 -577 -1
-618 -19 -664 -16 -43 -25 -51 -73 -73 -86 -39 -97 -104 -25 -146 67 -39 423
-46 543 -11 52 16 69 36 69 82 0 26 -25 62 -43 62 -26 0 -96 45 -106 68 -25
55 -42 453 -21 493 6 10 17 19 25 19 20 0 190 -204 442 -530 103 -134 169
-196 219 -207 68 -14 254 -8 316 10 63 19 88 45 88 91 0 43 -23 62 -112 92
-71 23 -90 35 -154 97 -117 111 -452 529 -469 585 -6 20 8 38 92 124 118 122
162 151 273 184 90 27 130 57 130 97 0 72 -82 101 -287 99 -216 -1 -292 -24
-309 -94 -6 -28 11 -50 82 -104 35 -26 30 -34 -88 -151 -96 -96 -204 -183
-226 -183 -7 0 -17 12 -22 26 -13 34 -13 319 1 705 14 387 17 373 -86 376 -39
1 -99 -5 -135 -13z"/>
<path d="M8465 6268 c-83 -29 -135 -96 -135 -174 0 -103 77 -164 205 -164 110
1 175 39 210 124 46 111 -55 227 -194 225 -31 0 -69 -5 -86 -11z"/>
<path d="M11855 5809 c-56 -38 -143 -78 -182 -85 -25 -4 -79 2 -149 17 -157
34 -369 34 -469 1 -112 -38 -180 -79 -249 -152 -104 -111 -141 -214 -134 -374
3 -76 9 -102 35 -158 18 -37 52 -90 78 -117 l46 -49 -34 -21 c-48 -29 -135
-124 -152 -166 -20 -46 -19 -119 1 -161 19 -40 87 -102 121 -110 13 -4 23 -9
22 -13 0 -3 -28 -26 -62 -51 -34 -25 -75 -65 -92 -88 -26 -38 -30 -52 -30
-110 1 -118 73 -211 220 -283 121 -59 178 -71 365 -76 138 -4 180 -2 260 15
328 68 530 252 530 484 0 90 -15 138 -57 188 -47 54 -107 88 -189 105 -89 19
-180 19 -378 -1 -322 -32 -466 3 -466 115 0 46 44 114 68 107 9 -3 37 -11 62
-18 70 -19 331 -17 407 4 201 56 343 187 389 362 23 84 18 209 -11 291 -15 43
-21 71 -14 74 26 8 96 70 120 106 39 58 45 104 17 145 -29 42 -36 44 -73 19z
m-509 -228 c64 -29 109 -75 139 -143 24 -53 29 -77 29 -148 1 -105 -20 -171
-75 -233 -53 -62 -112 -88 -192 -89 -104 0 -177 49 -226 152 -23 48 -26 68
-26 160 0 99 2 110 33 172 48 99 121 147 222 147 32 0 72 -7 96 -18z m267
-1225 c18 -7 46 -28 61 -47 25 -29 28 -39 24 -85 -5 -60 -36 -108 -100 -154
-154 -112 -488 -117 -626 -10 -69 55 -92 152 -53 229 32 62 34 63 218 63 92 0
193 3 223 7 93 14 218 12 253 -3z"/>
<path d="M4285 5755 c-95 -21 -170 -53 -251 -107 -203 -136 -314 -377 -301
-652 14 -309 195 -548 481 -638 90 -28 254 -35 348 -14 207 46 459 237 458
348 0 29 -9 42 -37 57 -33 17 -67 4 -138 -49 -128 -99 -236 -136 -368 -127
-197 13 -354 161 -389 365 -11 63 -10 77 3 100 l15 27 437 5 436 5 23 23 c19
19 23 35 26 100 12 279 -154 502 -416 557 -83 18 -247 18 -327 0z m253 -185
c97 -43 170 -145 179 -252 9 -92 24 -88 -306 -88 -210 0 -290 3 -299 12 -18
18 -14 101 7 157 50 133 166 207 309 196 34 -2 84 -14 110 -25z"/>
<path d="M5624 5755 c-179 -32 -303 -104 -355 -207 -32 -62 -23 -141 20 -180
26 -23 41 -28 82 -28 69 0 93 15 184 116 95 105 166 144 255 144 148 -1 210
-89 210 -298 l0 -104 -37 6 c-112 17 -311 18 -402 2 -108 -19 -233 -73 -296
-129 -91 -80 -141 -213 -132 -352 9 -142 66 -250 169 -317 79 -53 139 -71 254
-76 148 -6 201 10 402 124 l34 19 46 -51 c67 -73 105 -94 174 -94 156 0 312
103 282 187 -8 23 -21 32 -71 48 -35 11 -69 27 -78 36 -27 27 -35 127 -35 469
0 354 -7 426 -49 507 -42 84 -146 150 -278 178 -84 18 -282 18 -379 0z m311
-718 l80 -12 0 -160 c0 -148 -2 -164 -23 -208 -17 -34 -37 -55 -70 -75 -43
-25 -56 -27 -147 -27 -93 0 -104 2 -155 31 -75 42 -113 103 -118 189 -5 78 10
126 57 178 75 83 197 110 376 84z"/>
<path d="M8522 5745 c-208 -54 -312 -109 -312 -164 0 -35 22 -54 88 -76 66
-21 89 -45 99 -104 4 -25 8 -210 8 -411 0 -425 3 -410 -95 -460 -65 -33 -82
-62 -62 -105 19 -41 64 -56 208 -67 163 -12 344 0 401 28 36 18 38 22 38 64
l0 45 -64 31 c-99 48 -96 35 -96 409 0 176 2 426 5 556 5 223 4 238 -14 258
-26 28 -84 27 -204 -4z"/>
<path d="M9345 5755 c-76 -16 -244 -69 -288 -92 -47 -24 -67 -50 -67 -88 0
-38 9 -46 93 -74 92 -32 90 -24 100 -399 12 -479 5 -527 -82 -565 -64 -27 -81
-45 -81 -82 0 -39 31 -70 85 -83 65 -17 282 -24 392 -14 152 15 197 45 179
117 -5 19 -24 33 -74 58 -56 27 -69 38 -79 67 -15 45 -17 479 -2 586 6 43 19
101 30 130 51 136 194 218 326 185 66 -17 111 -54 139 -115 41 -90 49 -170 49
-471 0 -340 0 -340 -98 -384 -35 -16 -67 -36 -71 -46 -12 -32 -6 -62 17 -83
38 -35 110 -44 340 -40 237 4 276 13 294 64 16 50 3 74 -57 103 -99 48 -94 28
-101 454 -4 247 -10 391 -18 427 -23 96 -66 173 -132 234 -105 97 -198 131
-344 124 -78 -3 -102 -8 -156 -35 -35 -18 -97 -62 -136 -98 -40 -37 -77 -64
-83 -60 -5 3 -10 39 -10 79 0 42 -5 79 -13 89 -17 24 -70 28 -152 12z"/>
<path d="M8375 2746 c-117 -31 -217 -72 -249 -101 -18 -17 -26 -34 -26 -59 0
-41 3 -43 95 -76 96 -35 107 -55 113 -214 5 -153 -1 -165 -68 -135 -124 57
-319 76 -445 44 -261 -66 -448 -284 -495 -577 -20 -122 -9 -324 23 -423 88
-270 305 -426 572 -412 115 6 189 35 310 122 50 36 93 65 96 65 11 0 19 -42
19 -102 0 -51 3 -60 26 -75 24 -15 35 -15 113 -4 94 13 276 70 328 102 37 23
51 59 35 94 -8 16 -25 26 -64 35 -76 18 -105 35 -113 67 -25 99 -33 801 -15
1328 8 245 7 273 -8 305 -17 35 -18 35 -87 37 -48 2 -99 -5 -160 -21z m-240
-744 c80 -38 142 -94 156 -141 7 -23 9 -139 7 -326 -3 -281 -4 -292 -27 -343
-48 -107 -148 -158 -291 -150 -60 4 -87 10 -122 31 -96 56 -170 171 -202 314
-20 89 -21 255 -2 344 33 155 127 267 251 300 58 16 163 2 230 -29z"/>
</g>
</svg>
